<svg width="484" height="468" viewBox="0 0 484 468" fill="none" xmlns="http://www.w3.org/2000/svg">
<path fill-rule="evenodd" clip-rule="evenodd" d="M394.707 218.119C394.584 218.694 394.46 219.273 394.341 219.856C413.402 225.799 432.47 231.749 451.818 237.786C462.446 241.102 473.158 244.445 484 247.827C481.409 250.652 478.857 253.434 476.336 256.183C468.605 264.614 461.155 272.738 453.687 280.835C444.826 290.451 435.955 300.057 427.084 309.663C405.492 333.046 383.902 356.426 362.463 379.939C358.701 384.061 355.455 385.025 350.278 383.479L349.713 383.311C334.769 378.846 319.807 374.376 304.649 370.748C288.203 366.826 285.706 369.219 286.089 385.889C286.438 401.761 293.28 415.223 304.2 425.777C313.244 434.513 323.164 442.34 333.082 450.165C336.636 452.969 340.189 455.773 343.702 458.618C345.87 460.379 348.244 461.877 350.622 463.377C351.678 464.043 352.734 464.709 353.774 465.399C353.615 465.781 353.461 466.164 353.308 466.546C353.154 466.928 353 467.31 352.841 467.693C347.944 466.255 343.028 464.877 338.112 463.499C327.17 460.431 316.232 457.364 305.515 453.649C262.272 438.681 223.449 415.067 184.661 391.475C182.492 390.156 180.322 388.836 178.152 387.518L176.352 386.425C140.445 364.632 104.485 342.806 64.3225 329.597C50.2293 324.96 35.7797 321.413 20.9579 317.775C14.0533 316.081 7.06783 314.366 0 312.512C1.71859 311.107 3.40156 309.547 5.10344 307.97C8.85803 304.489 12.7047 300.924 17.2292 298.751C31.363 291.984 45.9159 286.067 60.4511 280.156C63.0525 279.098 65.6533 278.041 68.2511 276.979C72.2739 275.329 76.3808 273.873 80.4871 272.418C85.5224 270.634 90.557 268.85 95.435 266.708C108.719 260.841 115.361 250.453 114.462 235.695C113.963 227.734 113.43 219.773 111.932 210.914C108.935 197.502 106.954 184.937 105.856 173.187C105.24 166.655 104.907 160.373 104.84 154.34C102.71 -5.5605 279.147 0.0238026 279.147 0.0238026C282.206 0.662097 285.183 1.26021 288.1 1.8463C294.374 3.10675 300.371 4.31162 306.314 5.74107C354.689 17.3917 387.433 46.1608 402.432 93.993C403.221 96.5046 404.017 99.0155 404.812 101.527C409.12 115.118 413.432 128.725 416.748 142.556C424.089 173.154 439.67 198.067 464.873 217.014C467.509 218.979 469.96 221.182 472.415 223.389C473.573 224.429 474.731 225.47 475.91 226.487C475.577 227.435 475.261 228.382 474.944 229.329C448.293 225.108 421.658 220.903 395.007 216.698C394.909 217.171 394.808 217.644 394.707 218.119ZM137.784 193.962C144.592 204.399 151.334 214.887 157.51 225.706C160.872 231.591 163.803 237.722 166.735 243.852C168.042 246.587 169.349 249.32 170.694 252.032C166.056 249.998 162.04 247.539 158.154 245.162C155.375 243.46 152.662 241.8 149.836 240.365C142.129 236.443 137.101 238.686 133.822 246.415C130.99 253.061 128.247 259.745 125.399 266.685C123.995 270.106 122.566 273.589 121.087 277.161C124.147 277.563 127.288 278.047 130.489 278.54C137.758 279.659 145.333 280.826 152.949 281.184C173.474 282.147 185.576 273.056 189.738 252.797C191.885 242.376 192.917 231.241 191.719 220.753C190.151 206.884 186.913 193.186 183.688 179.542C183.284 177.833 182.88 176.125 182.48 174.417C180.801 167.23 178.754 160.131 176.705 153.029C175.3 148.158 173.895 143.287 172.609 138.385C167.731 119.87 178.485 104.979 199.227 101.256C220.634 97.4167 237.697 108.02 239.495 126.651C240.91 141.41 243.723 155.67 251.447 168.6C256.225 176.627 263.083 181.896 272.272 183.84C282.443 185.984 288.136 181.613 287.504 171.226C287.232 166.644 286.181 162.109 285.054 157.248C284.526 154.967 283.981 152.614 283.492 150.152C328.454 172.123 374.116 190.721 422.674 204.516C415.183 187.314 401.2 180.566 385.718 175.929C365.959 169.996 346.982 162.451 330.219 150.168C327.306 148.041 324.492 145.781 321.729 143.454C320.044 142.031 318.413 140.532 316.783 139.034C316.014 138.327 315.245 137.62 314.471 136.922C344.069 149.919 373.417 161.952 405.345 170.378C403.109 162.937 400.964 155.622 398.849 148.406C393.972 131.77 389.25 115.664 383.921 99.7601C375.864 75.6612 363.495 54.0553 340.739 40.643C312.723 24.1227 282.276 16.9097 249.816 20.0342C242.22 20.7663 234.711 22.4193 227.202 24.0724C223.8 24.8213 220.398 25.5702 216.988 26.2335C217.035 26.6237 217.086 27.0139 217.137 27.4058C217.194 27.8486 217.252 28.2935 217.305 28.7431C259.57 21.0314 298.074 30.5214 334.846 53.5733C333.975 53.8058 333.436 53.9741 333.088 54.0825C332.665 54.2144 332.526 54.2579 332.416 54.2215C330.352 53.4239 328.305 52.6096 326.258 51.7954L326.257 51.795C290.017 37.1195 252.646 32.1834 213.759 37.4852C128.795 49.0693 102.56 139.947 137.784 193.962ZM199.593 145.066C191.652 144.684 187.358 139.465 185.243 130.125C182.33 140.28 184.96 146.512 191.719 150.734C197.911 154.623 204.454 154.207 210.33 149.77C216.023 145.465 217.638 139.698 215.74 130.507C212.594 140.263 207.899 145.465 199.593 145.066ZM254.035 409.457C261.21 412.85 268.383 416.243 275.535 419.678L276.034 418.431C266.544 410.199 257.104 401.907 247.663 393.615C224.663 373.412 201.663 353.21 177.952 333.885C163.424 322.038 147.392 311.955 131.407 301.901C127.703 299.571 124.001 297.243 120.322 294.895C116.164 292.238 111.364 290.59 106.658 288.975C104.505 288.236 102.372 287.504 100.329 286.685C94.586 294.546 96.5836 300.529 102.377 305.216C107.287 309.205 112.781 312.545 118.307 315.687C123.649 318.719 129.054 321.65 134.46 324.582C141.471 328.384 148.483 332.187 155.363 336.212C159.659 338.724 163.662 341.734 167.668 344.747C169.466 346.099 171.265 347.452 173.091 348.76C170.245 349.127 168.326 348.117 166.419 347.112C166.251 347.024 166.084 346.936 165.917 346.849C158.454 343.022 150.969 339.233 143.484 335.445C126.526 326.862 109.566 318.278 92.8548 309.238C78.9049 301.693 66.1702 305.665 52.2038 310.385C56.1344 311.97 60.0227 313.439 63.8535 314.887C72.0282 317.975 79.9409 320.964 87.4446 324.778C107.751 335.104 127.949 345.646 148.15 356.188C167.71 366.396 187.272 376.605 206.934 386.62C222.484 394.537 238.261 401.998 254.035 409.457ZM189.621 324.445C229.723 337.176 269.841 349.807 309.976 362.422C311.02 362.747 312.117 362.883 313.211 363.019C313.739 363.084 314.267 363.15 314.787 363.236C312.257 361.009 309.527 359.763 306.73 358.649C296.035 354.39 285.333 350.146 274.632 345.902C250.089 336.169 225.545 326.436 201.074 316.518C183.595 309.437 182.047 303.787 191.536 287.748C193.711 284.061 195.567 280.19 197.424 276.319C198.254 274.589 199.084 272.859 199.942 271.145C189.988 287.167 174.906 295.078 157.194 300.014C159.904 302.267 162.517 304.46 165.07 306.602C170.766 311.382 176.164 315.912 181.681 320.307C183.978 322.135 186.808 323.548 189.621 324.445ZM276.367 292.427C280.628 287.69 284.89 282.954 289.135 278.209C296.406 270.091 303.66 261.969 310.991 253.759C316.299 247.816 321.648 241.827 327.072 235.761C321.429 230.675 318.366 233.252 315.07 236.958C308.111 244.799 301.104 252.596 294.099 260.391C283.879 271.763 273.663 283.132 263.599 294.629C263.475 294.772 263.35 294.914 263.226 295.057C257.64 301.467 252.346 307.542 242.608 306.014C242.486 306.014 242.284 306.476 242.093 306.912C242.023 307.073 241.954 307.23 241.892 307.36C252.995 316.883 254.51 316.817 263.599 306.645C267.844 301.9 272.105 297.164 276.367 292.427ZM358.002 245.633C351.659 241.611 348.347 243.722 344.784 247.728C336.041 257.553 327.222 267.303 318.406 277.051C309.564 286.827 300.725 296.601 291.965 306.446C291.533 306.93 291.105 307.416 290.678 307.902C285.62 313.654 280.703 319.246 271.723 318.096C271.605 318.096 271.417 318.644 271.253 319.121C271.207 319.255 271.163 319.383 271.123 319.493C281.244 328.949 283.375 328.916 292.015 319.276C307.363 302.141 322.711 285.023 338.076 267.904C340.468 265.232 342.86 262.557 345.285 259.844C349.375 255.27 353.561 250.589 358.002 245.633ZM297.722 333.349C297.672 333.554 297.623 333.759 297.575 333.919C309.077 341.115 311.708 340.849 319.864 331.775C325.691 325.276 331.521 318.778 337.352 312.279C343.182 305.781 349.013 299.283 354.839 292.784C360.842 286.078 366.834 279.362 372.879 272.589C377.964 266.889 383.087 261.149 388.282 255.339C382.672 250.154 379.592 252.847 376.313 256.536C367.509 266.437 358.665 276.302 349.821 286.169C340.537 296.524 331.253 306.881 322.012 317.282C321.303 318.08 320.602 318.889 319.903 319.698C314.119 326.384 308.39 333.006 298.024 332.473C297.934 332.473 297.827 332.912 297.722 333.349ZM327.805 343.109C339.774 350.572 342.204 350.339 350.727 340.849C371.219 318.03 391.711 295.211 412.187 272.358C413.649 270.717 415.049 269.015 416.583 267.151C417.301 266.277 418.048 265.368 418.845 264.414C412.653 259.827 409.706 262.802 406.577 266.342C399.032 274.818 391.456 283.263 383.881 291.708C373.187 303.629 362.494 315.548 351.893 327.553C351.303 328.22 350.72 328.894 350.139 329.567C344.594 335.979 339.162 342.26 329.203 341.447C328.921 341.425 328.6 341.924 328.271 342.433C328.116 342.674 327.96 342.918 327.805 343.109ZM408.891 297.587C409.423 298.036 409.956 298.485 410.472 298.95L414.314 294.793C427.736 280.269 441.216 265.682 455.501 250.237C453.929 249.808 452.505 249.426 451.181 249.07C448.51 248.354 446.247 247.746 443.998 247.079C433.798 244.017 423.598 240.957 413.397 237.896C361.82 222.423 310.244 206.949 258.738 191.186C254.493 189.89 250.182 186.167 247.602 182.411C236.881 166.838 230.872 149.387 229.59 130.49C228.941 120.901 225.795 113.023 216.356 109.366C205.935 105.361 195.997 106.873 186.891 113.222C189.295 113.174 191.664 112.824 194.026 112.476C195.705 112.228 197.38 111.981 199.06 111.843C214.375 110.58 221.65 116.796 223.198 132.086C224.862 148.556 229.407 164.279 238.08 178.323C243.174 186.55 243.49 194.344 240.227 202.737C236.951 211.172 233.527 219.549 230.105 227.92C228.658 231.459 227.212 234.996 225.778 238.537C233.136 226.969 239.861 215.019 246.403 202.987C249.965 196.455 254.11 194.477 261.884 197.286C319.765 218.194 378.777 235.362 438.804 249.007C440.912 249.485 443.012 250.048 445.45 250.703C446.575 251.004 447.772 251.325 449.075 251.666C441.044 260.85 433.303 269.694 425.686 278.396C420.042 284.844 414.466 291.214 408.891 297.587ZM352.725 118.226C343.886 105.296 333.681 93.7784 318.383 86.4158L318.416 86.449C314.338 96.5706 306.664 98.5151 297.708 96.4709C287.187 94.0776 276.766 91.2356 266.396 88.2274C247.718 82.8093 229.007 78.0393 209.248 78.9368C177.686 80.3661 154.764 98.3157 146.274 128.647C146.063 129.395 145.772 130.116 145.341 131.183C145.092 131.799 144.796 132.531 144.443 133.45C139.579 121.127 140.261 109.574 140.944 98.0217C141.1 95.3805 141.257 92.7392 141.346 90.0888C141.115 90.5318 140.882 90.9752 140.649 91.4189C136.769 98.8156 132.833 106.32 131.608 114.238C125.116 156.186 138.933 192.102 166.116 223.613C167.914 225.674 170.062 227.818 172.509 228.815C175.572 230.079 179.683 231.508 182.28 230.394C184.361 229.497 185.843 224.91 185.843 221.968C185.826 216.783 184.861 211.498 183.562 206.445C181.068 196.729 178.482 187.035 175.896 177.341C172.993 166.456 170.089 155.57 167.315 144.652C161.938 123.495 174.656 102.288 195.98 96.2548C217.854 90.0722 236.032 100.293 242.974 122.664C243.253 123.576 243.692 124.446 244.313 125.677C244.654 126.353 245.05 127.138 245.504 128.099C245.642 126.72 245.744 125.551 245.833 124.518C245.992 122.688 246.113 121.286 246.336 119.905C248.567 106.293 255.326 101.756 268.593 105.695C275.468 107.723 282.143 110.598 288.619 113.673C296.963 117.629 305.26 121.68 313.555 125.73C326.657 132.127 339.753 138.521 353.025 144.536C361.63 148.426 370.557 151.612 379.482 154.797C383.558 156.252 387.633 157.706 391.678 159.228C375.098 148.558 363.429 133.882 352.725 118.226Z" fill="url(#paint0_linear_6_262)" fill-opacity="0.2"/>
<defs>
<linearGradient id="paint0_linear_6_262" x1="242" y1="85" x2="242" y2="460" gradientUnits="userSpaceOnUse">
<stop/>
<stop offset="1" stop-opacity="0"/>
</linearGradient>
</defs>
</svg>
